
<svg
   xmlns:dc="http://purl.org/dc/elements/1.1/"
   xmlns:cc="http://creativecommons.org/ns#"
   xmlns:rdf="http://www.w3.org/1999/02/22-rdf-syntax-ns#"
   xmlns:svg="http://www.w3.org/2000/svg"
   xmlns="http://www.w3.org/2000/svg"
   xmlns:sodipodi="http://sodipodi.sourceforge.net/DTD/sodipodi-0.dtd"
   xmlns:inkscape="http://www.inkscape.org/namespaces/inkscape"
   version="1.1"
   id="svg3713"
   xml:space="preserve"
   viewBox="0 0 269.5376 76.257333"
   sodipodi:docname="Ibinex-Logo.svg"
   inkscape:version="0.92.3 (2405546, 2018-03-11)"><metadata
     id="metadata3719"><rdf:RDF><cc:Work
         rdf:about=""><dc:format>image/svg+xml</dc:format><dc:type
           rdf:resource="http://purl.org/dc/dcmitype/StillImage" /><dc:title></dc:title></cc:Work></rdf:RDF></metadata><defs
     id="defs3717"><clipPath
       clipPathUnits="userSpaceOnUse"
       id="clipPath3733"><path
         d="M 0,141.73 H 283.46 V 0 H 0 Z"
         id="path3731"
         inkscape:connector-curvature="0" /></clipPath></defs><sodipodi:namedview
     pagecolor="#ffffff"
     bordercolor="#666666"
     borderopacity="1"
     objecttolerance="10"
     gridtolerance="10"
     guidetolerance="10"
     inkscape:pageopacity="0"
     inkscape:pageshadow="2"
     inkscape:window-width="1366"
     inkscape:window-height="705"
     id="namedview3715"
     showgrid="false"
     inkscape:zoom="2.8469626"
     inkscape:cx="136.1736"
     inkscape:cy="55.987929"
     inkscape:window-x="-8"
     inkscape:window-y="-8"
     inkscape:window-maximized="1"
     inkscape:current-layer="g3721"
     fit-margin-top="0"
     fit-margin-left="0"
     fit-margin-right="0"
     fit-margin-bottom="0" /><g
     id="g3721"
     inkscape:groupmode="layer"
     inkscape:label="Ibinex-Logo"
     transform="matrix(1.3333333,0,0,-1.3333333,-52.799732,128.80613)"><g
       id="g3723"
       transform="translate(210.958,58.7359)"><path
         d="M 0,0 H 15.408 L 11.895,9.334 Z"
         style="fill:#c11e25;fill-opacity:1;fill-rule:nonzero;stroke:none"
         id="path3725"
         inkscape:connector-curvature="0" /></g><g
       id="g3727"><g
         id="g3729"
         clip-path="url(#clipPath3733)"><g
           id="g3735"
           transform="translate(213.2236,89.4546)"><path
             d="m 0,0 h 12.055 l 3.338,-9.041 9.409,7.378 0.98,5.559 c 0.299,1.697 -1.007,3.254 -2.73,3.254 h -34.565 l -6.677,-37.869 h 4.184 L 6.519,-15.3 Z"
             style="fill:#c11e25;fill-opacity:1;fill-rule:nonzero;stroke:none"
             id="path3737"
             inkscape:connector-curvature="0" /></g><g
           id="g3739"
           transform="translate(234.5078,67.8394)"><path
             d="M 0,0 1.741,9.878 -2.779,6.489 Z"
             style="fill:#c11e25;fill-opacity:1;fill-rule:nonzero;stroke:none"
             id="path3741"
             inkscape:connector-curvature="0" /></g><g
           id="g3743"
           transform="translate(49.9614,96.6045)"><path
             d="M 0,0 H 10.55 L 3.873,-37.869 h -10.55 z"
             style="fill:#162554;fill-opacity:1;fill-rule:nonzero;stroke:none"
             id="path3745"
             inkscape:connector-curvature="0" /></g><g
           id="g3747"
           transform="translate(81.5991,81.5113)"><path
             d="m 0,0 c 1.623,0 2.906,0.27 3.849,0.812 0.942,0.54 1.513,1.37 1.71,2.488 l 0.02,0.108 C 5.763,4.454 5.507,5.256 4.812,5.815 4.117,6.374 2.977,6.654 1.39,6.654 H -5.426 L -6.6,0 Z m -1.013,-14.337 c 1.623,0 2.919,0.299 3.89,0.893 0.971,0.595 1.554,1.452 1.751,2.57 l 0.019,0.108 c 0.185,1.045 -0.084,1.874 -0.805,2.49 -0.722,0.612 -1.966,0.919 -3.732,0.919 h -8.007 l -1.23,-6.98 z m -13.15,29.43 H 5.226 c 2.376,0 4.359,-0.288 5.949,-0.865 1.591,-0.578 2.846,-1.425 3.765,-2.542 0.623,-0.758 1.061,-1.642 1.315,-2.652 0.253,-1.01 0.267,-2.163 0.038,-3.462 L 16.274,5.464 c -0.388,-2.2 -1.249,-3.976 -2.581,-5.329 -1.334,-1.353 -2.907,-2.39 -4.72,-3.111 2.182,-0.756 3.825,-1.848 4.931,-3.272 1.105,-1.426 1.432,-3.418 0.981,-5.979 l -0.019,-0.107 c -0.579,-3.282 -2.283,-5.844 -5.115,-7.683 -2.831,-1.839 -6.517,-2.758 -11.062,-2.758 H -20.84 Z"
             style="fill:#162554;fill-opacity:1;fill-rule:nonzero;stroke:none"
             id="path3749"
             inkscape:connector-curvature="0" /></g><g
           id="g3751"
           transform="translate(106.3325,96.6045)"><path
             d="M 0,0 H 10.55 L 3.873,-37.869 h -10.55 z"
             style="fill:#162554;fill-opacity:1;fill-rule:nonzero;stroke:none"
             id="path3753"
             inkscape:connector-curvature="0" /></g><g
           id="g3755"
           transform="translate(123.8062,96.6045)"><path
             d="M 0,0 H 9.813 L 21.896,-20.016 25.426,0 H 35.759 L 29.082,-37.869 H 19.866 L 7.319,-17.095 3.656,-37.869 H -6.677 Z"
             style="fill:#162554;fill-opacity:1;fill-rule:nonzero;stroke:none"
             id="path3757"
             inkscape:connector-curvature="0" /></g><g
           id="g3759"
           transform="translate(166.2744,96.6045)"><path
             d="M 0,0 H 30.403 L 28.829,-8.926 H 8.759 l -1.012,-5.735 h 18.178 l -1.46,-8.276 H 6.288 L 5.229,-28.942 H 25.57 l -1.574,-8.927 H -6.678 Z"
             style="fill:#162554;fill-opacity:1;fill-rule:nonzero;stroke:none"
             id="path3761"
             inkscape:connector-curvature="0" /></g><g
           id="g3763"
           transform="translate(42.8628,39.4263)"><path
             d="m 0,0 c -0.8,0 -1.462,0.187 -1.985,0.562 -0.524,0.375 -0.95,0.86 -1.278,1.455 l 0.662,0.416 C -2.437,2.155 -2.265,1.909 -2.085,1.693 -1.906,1.478 -1.711,1.298 -1.5,1.154 -1.291,1.011 -1.06,0.903 -0.808,0.831 -0.557,0.76 -0.272,0.724 0.046,0.724 c 0.329,0 0.636,0.061 0.924,0.184 0.287,0.123 0.536,0.306 0.746,0.547 0.21,0.241 0.375,0.541 0.492,0.9 0.119,0.36 0.178,0.775 0.178,1.247 v 7.327 h 0.8 V 3.664 C 3.186,3.037 3.096,2.488 2.917,2.017 2.737,1.545 2.499,1.16 2.201,0.862 1.914,0.575 1.583,0.359 1.208,0.216 0.833,0.072 0.431,0 0,0"
             style="fill:#66686e;fill-opacity:1;fill-rule:nonzero;stroke:none"
             id="path3765"
             inkscape:connector-curvature="0" /></g><g
           id="g3767"
           transform="translate(55.73,39.4116)"><path
             d="m 0,0 c -0.646,0 -1.239,0.1 -1.777,0.3 -0.539,0.2 -1.006,0.497 -1.401,0.892 -0.395,0.395 -0.7,0.88 -0.916,1.455 -0.216,0.575 -0.323,1.242 -0.323,2 v 6.296 h 0.8 V 4.725 c 0,-1.283 0.321,-2.27 0.962,-2.963 0.641,-0.693 1.537,-1.039 2.686,-1.039 0.544,0 1.036,0.082 1.478,0.247 0.441,0.164 0.818,0.41 1.131,0.738 0.313,0.328 0.554,0.739 0.723,1.231 0.17,0.493 0.254,1.063 0.254,1.708 v 6.296 h 0.8 V 4.74 C 4.417,3.971 4.31,3.291 4.094,2.701 3.879,2.11 3.576,1.616 3.186,1.216 2.796,0.815 2.332,0.513 1.793,0.308 1.254,0.103 0.657,0 0,0"
             style="fill:#66686e;fill-opacity:1;fill-rule:nonzero;stroke:none"
             id="path3769"
             inkscape:connector-curvature="0" /></g><g
           id="g3771"
           transform="translate(69.2285,39.4263)"><path
             d="M 0,0 C -0.862,0 -1.639,0.145 -2.332,0.432 -3.024,0.719 -3.694,1.149 -4.34,1.725 l 0.523,0.599 c 0.297,-0.276 0.592,-0.515 0.885,-0.716 0.292,-0.199 0.593,-0.364 0.9,-0.492 0.308,-0.128 0.632,-0.225 0.97,-0.292 0.339,-0.067 0.708,-0.1 1.108,-0.1 0.4,0 0.77,0.053 1.108,0.162 C 1.493,0.993 1.78,1.142 2.016,1.332 2.252,1.521 2.437,1.747 2.57,2.009 2.704,2.271 2.771,2.556 2.771,2.863 V 2.894 C 2.771,3.182 2.727,3.438 2.64,3.664 2.552,3.89 2.394,4.095 2.163,4.279 1.932,4.464 1.621,4.631 1.231,4.779 0.841,4.928 0.339,5.064 -0.277,5.187 -0.923,5.32 -1.478,5.478 -1.939,5.657 -2.401,5.836 -2.778,6.047 -3.071,6.288 -3.363,6.529 -3.576,6.809 -3.709,7.127 -3.843,7.444 -3.91,7.809 -3.91,8.22 v 0.03 c 0,0.4 0.088,0.772 0.262,1.116 0.174,0.344 0.416,0.644 0.724,0.901 0.307,0.256 0.672,0.456 1.092,0.6 0.421,0.144 0.883,0.215 1.386,0.215 0.779,0 1.454,-0.107 2.024,-0.323 0.569,-0.215 1.126,-0.544 1.67,-0.985 L 2.74,9.143 c -0.513,0.441 -1.029,0.754 -1.547,0.939 -0.518,0.185 -1.075,0.277 -1.67,0.277 -0.4,0 -0.762,-0.054 -1.085,-0.162 C -1.885,10.09 -2.163,9.943 -2.394,9.759 -2.624,9.574 -2.801,9.358 -2.924,9.112 -3.047,8.866 -3.109,8.604 -3.109,8.327 V 8.297 C -3.109,8.009 -3.065,7.75 -2.978,7.52 -2.891,7.288 -2.732,7.078 -2.501,6.888 -2.27,6.698 -1.95,6.526 -1.539,6.372 -1.129,6.219 -0.605,6.075 0.031,5.941 1.283,5.685 2.186,5.323 2.74,4.856 3.294,4.39 3.571,3.761 3.571,2.971 V 2.94 C 3.571,2.509 3.481,2.111 3.302,1.747 3.122,1.383 2.875,1.072 2.563,0.816 2.25,0.56 1.875,0.359 1.439,0.216 1.003,0.072 0.523,0 0,0"
             style="fill:#66686e;fill-opacity:1;fill-rule:nonzero;stroke:none"
             id="path3773"
             inkscape:connector-curvature="0" /></g><g
           id="g3775"
           transform="translate(80.8188,49.6314)"><path
             d="M 0,0 H -3.756 V 0.724 H 4.556 V 0 H 0.8 V -10.051 H 0 Z"
             style="fill:#66686e;fill-opacity:1;fill-rule:nonzero;stroke:none"
             id="path3777"
             inkscape:connector-curvature="0" /></g><g
           id="g3779"
           transform="translate(104.5215,43.3208)"><path
             d="M 0,0 -2.832,6.233 -5.68,0 Z m -3.202,7.111 h 0.77 L 2.586,-3.74 H 1.708 l -1.37,3.016 h -6.356 l -1.37,-3.016 h -0.831 z"
             style="fill:#66686e;fill-opacity:1;fill-rule:nonzero;stroke:none"
             id="path3781"
             inkscape:connector-curvature="0" /></g><g
           id="g3783"
           transform="translate(115.3726,40.3042)"><path
             d="M 0,0 C 0.749,0 1.426,0.121 2.032,0.362 2.637,0.604 3.15,0.934 3.571,1.351 3.992,1.768 4.317,2.257 4.548,2.818 4.779,3.379 4.895,3.983 4.895,4.633 v 0.03 C 4.895,5.302 4.779,5.904 4.548,6.47 4.317,7.036 3.992,7.53 3.571,7.953 3.15,8.375 2.637,8.709 2.032,8.956 1.426,9.203 0.749,9.327 0,9.327 H -2.786 V 0 Z M -3.586,10.051 H 0 c 0.841,0 1.613,-0.137 2.316,-0.408 C 3.019,9.371 3.625,8.993 4.133,8.512 4.641,8.029 5.033,7.462 5.31,6.811 5.587,6.159 5.726,5.453 5.726,4.694 V 4.663 C 5.726,3.904 5.587,3.196 5.31,2.539 5.033,1.883 4.641,1.313 4.133,0.831 3.625,0.349 3.019,-0.031 2.316,-0.308 1.613,-0.585 0.841,-0.724 0,-0.724 h -3.586 z"
             style="fill:#66686e;fill-opacity:1;fill-rule:nonzero;stroke:none"
             id="path3785"
             inkscape:connector-curvature="0" /></g><g
           id="g3787"
           transform="translate(129.8086,40.3042)"><path
             d="m 0,0 c 0.75,0 1.428,0.121 2.033,0.362 0.606,0.242 1.117,0.572 1.539,0.989 0.42,0.417 0.746,0.906 0.977,1.467 0.23,0.561 0.346,1.165 0.346,1.815 v 0.03 C 4.895,5.302 4.779,5.904 4.549,6.47 4.318,7.036 3.992,7.53 3.572,7.953 3.15,8.375 2.639,8.709 2.033,8.956 1.428,9.203 0.75,9.327 0,9.327 H -2.785 V 0 Z M -3.585,10.051 H 0 c 0.842,0 1.615,-0.137 2.318,-0.408 C 3.02,9.371 3.625,8.993 4.133,8.512 4.641,8.029 5.033,7.462 5.311,6.811 5.588,6.159 5.727,5.453 5.727,4.694 V 4.663 C 5.727,3.904 5.588,3.196 5.311,2.539 5.033,1.883 4.641,1.313 4.133,0.831 3.625,0.349 3.02,-0.031 2.318,-0.308 1.615,-0.585 0.842,-0.724 0,-0.724 h -3.585 z"
             style="fill:#66686e;fill-opacity:1;fill-rule:nonzero;stroke:none"
             id="path3789"
             inkscape:connector-curvature="0" /></g><g
           id="g3791"
           transform="translate(150.665,49.6314)"><path
             d="M 0,0 H -3.756 V 0.724 H 4.556 V 0 H 0.8 V -10.051 H 0 Z"
             style="fill:#66686e;fill-opacity:1;fill-rule:nonzero;stroke:none"
             id="path3793"
             inkscape:connector-curvature="0" /></g><g
           id="g3795"
           transform="translate(164.4863,44.7671)"><path
             d="m 0,0 c 0.452,0 0.87,0.057 1.255,0.17 0.385,0.113 0.716,0.275 0.992,0.486 0.277,0.212 0.495,0.469 0.654,0.773 0.16,0.303 0.24,0.651 0.24,1.042 v 0.031 c 0,0.73 -0.27,1.307 -0.809,1.729 C 1.794,4.653 1.031,4.864 0.047,4.864 H -3.632 V 0 Z M -4.433,5.588 H 0.093 C 0.76,5.588 1.35,5.492 1.862,5.303 2.376,5.113 2.796,4.854 3.125,4.525 3.381,4.269 3.581,3.969 3.726,3.625 3.869,3.281 3.94,2.914 3.94,2.524 V 2.494 C 3.94,2.042 3.861,1.64 3.702,1.286 3.543,0.932 3.322,0.626 3.04,0.37 2.758,0.113 2.425,-0.095 2.04,-0.254 1.655,-0.413 1.236,-0.522 0.785,-0.584 L 4.341,-5.187 H 3.325 l -3.432,4.464 h -0.032 -3.493 v -4.464 h -0.801 z"
             style="fill:#66686e;fill-opacity:1;fill-rule:nonzero;stroke:none"
             id="path3797"
             inkscape:connector-curvature="0" /></g><g
           id="g3799"
           transform="translate(180.8789,43.3208)"><path
             d="M 0,0 -2.832,6.233 -5.68,0 Z m -3.201,7.111 h 0.769 L 2.586,-3.74 H 1.708 L 0.339,-0.724 H -6.019 L -7.388,-3.74 H -8.22 Z"
             style="fill:#66686e;fill-opacity:1;fill-rule:nonzero;stroke:none"
             id="path3801"
             inkscape:connector-curvature="0" /></g><g
           id="g3803"
           transform="translate(191.7295,40.3042)"><path
             d="m 0,0 c 0.749,0 1.427,0.121 2.032,0.362 0.606,0.242 1.118,0.572 1.539,0.989 0.421,0.417 0.746,0.906 0.978,1.467 0.23,0.561 0.346,1.165 0.346,1.815 v 0.03 C 4.895,5.302 4.779,5.904 4.549,6.47 4.317,7.036 3.992,7.53 3.571,7.953 3.15,8.375 2.638,8.709 2.032,8.956 1.427,9.203 0.749,9.327 0,9.327 H -2.785 V 0 Z M -3.586,10.051 H 0 c 0.842,0 1.614,-0.137 2.317,-0.408 C 3.02,9.371 3.625,8.993 4.133,8.512 4.641,8.029 5.033,7.462 5.311,6.811 5.588,6.159 5.727,5.453 5.727,4.694 V 4.663 C 5.727,3.904 5.588,3.196 5.311,2.539 5.033,1.883 4.641,1.313 4.133,0.831 3.625,0.349 3.02,-0.031 2.317,-0.308 1.614,-0.585 0.842,-0.724 0,-0.724 h -3.586 z"
             style="fill:#66686e;fill-opacity:1;fill-rule:nonzero;stroke:none"
             id="path3805"
             inkscape:connector-curvature="0" /></g><g
           id="g3807"
           transform="translate(202.5811,50.355)"><path
             d="M 0,0 H 7.665 V -0.724 H 0.801 V -4.987 H 6.973 V -5.711 H 0.801 v -4.34 h 6.941 v -0.723 H 0 Z"
             style="fill:#66686e;fill-opacity:1;fill-rule:nonzero;stroke:none"
             id="path3809"
             inkscape:connector-curvature="0" /></g><g
           id="g3811"
           transform="translate(219.7266,44.7671)"><path
             d="m 0,0 c 0.452,0 0.87,0.057 1.255,0.17 0.385,0.113 0.716,0.275 0.992,0.486 0.277,0.212 0.495,0.469 0.654,0.773 0.16,0.303 0.24,0.651 0.24,1.042 v 0.031 c 0,0.73 -0.27,1.307 -0.809,1.729 C 1.794,4.653 1.031,4.864 0.047,4.864 H -3.632 V 0 Z M -4.433,5.588 H 0.093 C 0.76,5.588 1.35,5.492 1.862,5.303 2.376,5.113 2.796,4.854 3.125,4.525 3.381,4.269 3.581,3.969 3.726,3.625 3.869,3.281 3.94,2.914 3.94,2.524 V 2.494 C 3.94,2.042 3.861,1.64 3.702,1.286 3.543,0.932 3.322,0.626 3.04,0.37 2.758,0.113 2.425,-0.095 2.04,-0.254 1.655,-0.413 1.236,-0.522 0.785,-0.584 L 4.341,-5.187 H 3.325 l -3.432,4.464 h -0.032 -3.493 v -4.464 h -0.801 z"
             style="fill:#66686e;fill-opacity:1;fill-rule:nonzero;stroke:none"
             id="path3813"
             inkscape:connector-curvature="0" /></g><g
           id="g3815"
           transform="translate(232.4717,39.4263)"><path
             d="m 0,0 c -0.862,0 -1.64,0.145 -2.332,0.432 -0.693,0.287 -1.362,0.717 -2.009,1.293 l 0.524,0.599 c 0.296,-0.276 0.592,-0.515 0.884,-0.716 0.293,-0.199 0.593,-0.364 0.901,-0.492 0.307,-0.128 0.631,-0.225 0.97,-0.292 0.338,-0.067 0.708,-0.1 1.108,-0.1 0.4,0 0.769,0.053 1.108,0.162 0.338,0.107 0.625,0.256 0.862,0.446 0.236,0.189 0.421,0.415 0.554,0.677 0.133,0.262 0.201,0.547 0.201,0.854 V 2.894 C 2.771,3.182 2.727,3.438 2.64,3.664 2.552,3.89 2.393,4.095 2.162,4.279 1.932,4.464 1.621,4.631 1.23,4.779 0.841,4.928 0.338,5.064 -0.277,5.187 -0.924,5.32 -1.479,5.478 -1.939,5.657 -2.401,5.836 -2.778,6.047 -3.071,6.288 -3.363,6.529 -3.576,6.809 -3.71,7.127 -3.844,7.444 -3.91,7.809 -3.91,8.22 v 0.03 c 0,0.4 0.087,0.772 0.262,1.116 0.174,0.344 0.416,0.644 0.723,0.901 0.308,0.256 0.672,0.456 1.093,0.6 0.421,0.144 0.883,0.215 1.385,0.215 0.78,0 1.455,-0.107 2.024,-0.323 0.569,-0.215 1.126,-0.544 1.67,-0.985 L 2.739,9.143 C 2.226,9.584 1.71,9.897 1.192,10.082 c -0.518,0.185 -1.075,0.277 -1.67,0.277 -0.4,0 -0.761,-0.054 -1.084,-0.162 C -1.886,10.09 -2.163,9.943 -2.394,9.759 -2.625,9.574 -2.802,9.358 -2.925,9.112 -3.048,8.866 -3.109,8.604 -3.109,8.327 v -0.03 c 0,-0.288 0.043,-0.547 0.13,-0.777 C -2.892,7.288 -2.732,7.078 -2.502,6.888 -2.271,6.698 -1.95,6.526 -1.54,6.372 -1.129,6.219 -0.606,6.075 0.03,5.941 1.282,5.685 2.186,5.323 2.739,4.856 3.293,4.39 3.57,3.761 3.57,2.971 V 2.94 C 3.57,2.509 3.48,2.111 3.301,1.747 3.121,1.383 2.875,1.072 2.563,0.816 2.249,0.56 1.875,0.359 1.438,0.216 1.002,0.072 0.522,0 0,0"
             style="fill:#66686e;fill-opacity:1;fill-rule:nonzero;stroke:none"
             id="path3817"
             inkscape:connector-curvature="0" /></g><path
           d="m 240.736,40.889 h 1.017 V 39.58 h -1.017 z"
           style="fill:#66686e;fill-opacity:1;fill-rule:nonzero;stroke:none"
           id="path3819"
           inkscape:connector-curvature="0" /></g></g></g></svg>